<svg width="114" height="114" fill="none" xmlns="http://www.w3.org/2000/svg"><g clip-path="url(#clip0)"><path d="M19.73 61.7H.61v-9.4h19.12c-.192 1.542-.324 3.107-.324 4.7s.132 3.158.324 4.7zm14.258-34.362L20.449 13.8l-6.645 6.645 13.539 13.538a37.684 37.684 0 0 1 6.645-6.645zm52.674 6.645L100.2 20.445 93.555 13.8 80.017 27.338a38.161 38.161 0 0 1 6.645 6.645zM57 19.406c1.593 0 3.158.132 4.7.324V.61h-9.4v19.12c1.542-.192 3.107-.324 4.7-.324zm0 75.188c-1.593 0-3.158-.132-4.7-.324v19.121h9.4V94.27c-1.542.192-3.107.324-4.7.324zm37.27-42.293c.192 1.541.324 3.106.324 4.699s-.132 3.158-.324 4.7h19.121v-9.4H94.27zM80.017 86.66l13.534 13.534 6.649-6.644-13.534-13.534a38.184 38.184 0 0 1-6.65 6.645zm-52.679-6.649L13.804 93.546l6.645 6.645 13.534-13.534a37.843 37.843 0 0 1-6.645-6.645zM38.203 57c0 10.367 8.43 18.797 18.797 18.797S75.797 67.367 75.797 57 67.367 38.203 57 38.203 38.203 46.633 38.203 57zm46.992 0c0 15.573-12.622 28.195-28.195 28.195S28.805 72.573 28.805 57 41.427 28.805 57 28.805 85.195 41.427 85.195 57z" fill="#fff"/></g><defs><clipPath id="clip0"><path fill="#fff" transform="translate(.609 .609)" d="M0 0h112.782v112.782H0z"/></clipPath></defs></svg>