<svg width="114" height="114" fill="none" xmlns="http://www.w3.org/2000/svg"><g clip-path="url(#clip0)"><path d="M96.577 40.628c-.836-15.193-14.243-27.152-30.225-25.808-5.109-5.823-12.656-9.512-21.1-9.512-14.906 0-27.04 11.48-27.83 25.921C7.87 32.916.61 41.121.61 50.994c0 11.1 9.159 20.104 20.46 20.104h6.232a20.488 20.488 0 0 0 17.265 9.398h48.36c11.306 0 20.465-9.003 20.465-20.103 0-9.873-7.26-18.078-16.814-19.765zM24.232 61.699H21.07c-6.095 0-11.063-4.802-11.063-10.705 0-9.953 9.888-12.204 16.392-11.804-.236-6.372.643-24.483 18.853-24.483 4.544 0 8.054 1.175 10.761 3.026-8.567 4.333-14.549 12.904-15.094 22.895-9.502 1.682-17.373 9.995-16.687 21.071zm68.694 9.399h-48.36c-6.095 0-11.062-4.803-11.062-10.705 0-9.953 9.887-12.204 16.39-11.805-.234-6.372.645-24.483 18.854-24.483 17.721 0 19.873 17.721 18.853 24.479 7.092-.494 16.391 2.053 16.391 11.809 0 5.902-4.967 10.705-11.066 10.705zM26.84 108.692l-6.626-6.626 16.87-16.87 6.627 6.625-16.87 16.871zm40.146-16.87l-6.626-6.627-16.87 16.871 6.626 6.626 16.87-16.87zm22.909 0l-6.626-6.627-16.87 16.871 6.625 6.626 16.87-16.87z" fill="#fff"/></g><defs><clipPath id="clip0"><path fill="#fff" transform="translate(.609 .609)" d="M0 0h112.782v112.782H0z"/></clipPath></defs></svg>